name C:\Gil\MeshesInAD\WorkshopBarcelona2024\All_Seminars_github\TrackSimResults\KneeProsthesis\KneeProsthesis.mot
datacolumns 7
datarows 41
range 2.229200 3.374000
endheader
time	knee_flexion	knee_adduction	knee_rotation	knee_tx	knee_ty	knee_tz	
          2.22920000	         -0.48664731	          0.15773691	         -0.02440532	         -0.00009973	          0.04232940	          0.00004733	
          2.24210209	         -2.55647400	          0.22931813	         -0.02155364	         -0.00011267	          0.04235152	         -0.00007305	
          2.28644000	        -13.61410902	          0.30524644	         -0.01172204	         -0.00006181	          0.04310848	         -0.00016848	
          2.33077791	        -29.19796533	          0.22372445	          0.00726489	          0.00008079	          0.04432154	          0.00003150	
          2.34368000	        -34.28527289	          0.19033881	          0.01622012	          0.00012902	          0.04464773	          0.00010806	
          2.35658209	        -39.33700671	          0.21751926	          0.03411621	          0.00014285	          0.04489689	          0.00014513	
          2.40092000	        -54.39966023	          0.35045352	          0.07070779	          0.00003232	          0.04537608	          0.00023984	
          2.44525791	        -63.80686164	          0.38219879	          0.05607524	         -0.00009161	          0.04545196	          0.00026849	
          2.45816000	        -65.08829406	          0.34191993	          0.03982191	         -0.00008670	          0.04543225	          0.00026154	
          2.47106209	        -65.74006063	          0.33563828	          0.03918901	         -0.00009957	          0.04543829	          0.00026771	
          2.51540000	        -63.33902703	          0.40858565	          0.08082755	         -0.00016793	          0.04547082	          0.00027880	
          2.55973791	        -54.42268938	          0.44618001	          0.08900291	         -0.00018092	          0.04540586	          0.00027048	
          2.57264000	        -50.73091991	          0.41632969	          0.06606123	         -0.00015688	          0.04534692	          0.00026371	
          2.58554209	        -46.52912829	          0.39786072	          0.03570565	         -0.00015223	          0.04528447	          0.00031673	
          2.62988000	        -28.81102738	          0.43339083	         -0.03972837	         -0.00004053	          0.04432085	          0.00034386	
          2.67421791	        -10.67926301	          0.38949685	         -0.06424536	          0.00007098	          0.04295386	          0.00009697	
          2.68712000	         -6.20169574	          0.31807850	         -0.06065624	          0.00007550	          0.04262251	         -0.00003270	
          2.70002209	         -2.38320029	          0.20828855	         -0.05960219	          0.00003108	          0.04239544	         -0.00008778	
          2.74436000	          2.96660577	          0.01315422	         -0.05386370	         -0.00000753	          0.04208901	         -0.00017910	
          2.78869791	         -0.84190758	          0.10916818	         -0.04433348	          0.00009935	          0.04229520	         -0.00023792	
          2.80160000	         -3.12895840	          0.19347709	         -0.04075160	          0.00015191	          0.04240987	         -0.00027133	
          2.81450209	         -5.35708864	          0.26792391	         -0.03603560	          0.00016420	          0.04255096	         -0.00026634	
          2.85884000	        -11.47461454	          0.40896218	         -0.02650154	          0.00006374	          0.04297959	         -0.00015544	
          2.90317791	        -14.35926007	          0.43828331	         -0.02032504	         -0.00005952	          0.04316584	         -0.00002590	
          2.91608000	        -14.43213673	          0.43825203	         -0.01784742	         -0.00006243	          0.04314534	         -0.00000850	
          2.92898209	        -14.33139513	          0.46759336	         -0.01339810	         -0.00004974	          0.04314098	         -0.00000544	
          2.97332000	        -12.89700200	          0.51121488	         -0.00445396	         -0.00004031	          0.04302074	         -0.00003447	
          3.01765791	        -10.15798568	          0.46144159	         -0.00429793	         -0.00005040	          0.04284640	         -0.00003101	
          3.03056000	         -9.18749528	          0.42851971	         -0.00570735	         -0.00005072	          0.04280596	         -0.00000629	
          3.04346209	         -8.13393430	          0.40289761	         -0.00748486	         -0.00004077	          0.04271330	          0.00000145	
          3.08780000	         -4.05596373	          0.31999109	         -0.01371425	         -0.00002026	          0.04243247	         -0.00004835	
          3.13213791	          0.02907860	          0.25192922	         -0.01426025	         -0.00003584	          0.04223080	         -0.00006629	
          3.14504000	          1.08735408	          0.23620356	         -0.01224883	         -0.00004995	          0.04219092	         -0.00003731	
          3.15794209	          2.03831708	          0.21990891	         -0.01026537	         -0.00006245	          0.04211756	         -0.00000716	
          3.20228000	          4.45716593	          0.16105799	         -0.00479623	         -0.00006548	          0.04194351	          0.00002231	
          3.24661791	          5.62883836	          0.11705099	         -0.00133691	         -0.00003394	          0.04185743	          0.00000644	
          3.25952000	          5.74835040	          0.11065230	         -0.00069333	         -0.00002338	          0.04184272	          0.00000636	
          3.27242209	          5.79087705	          0.10757048	          0.00006082	         -0.00001542	          0.04184290	          0.00001380	
          3.31676000	          4.96894616	          0.12387446	          0.00079377	          0.00000190	          0.04189498	          0.00002087	
          3.36109791	          1.21049363	          0.19385085	          0.00030283	          0.00001973	          0.04215839	         -0.00001980	
          3.37400000	         -0.70466080	          0.22655064	          0.00024104	          0.00002804	          0.04229946	         -0.00004420	
